<?xml version="1.0" standalone="no"?>
<!DOCTYPE svg PUBLIC "-//W3C//DTD SVG 20010904//EN"
 "http://www.w3.org/TR/2001/REC-SVG-20010904/DTD/svg10.dtd">
<svg version="1.0" xmlns="http://www.w3.org/2000/svg"
 width="782.000000pt" height="782.000000pt" viewBox="0 0 782.000000 782.000000"
 preserveAspectRatio="xMidYMid meet">
<metadata>
Created by potrace 1.14, written by Peter Selinger 2001-2017
</metadata>
<g transform="translate(0.000000,782.000000) scale(0.100000,-0.100000)"
fill="#000000" stroke="none">
<path d="M3725 7644 c-527 -117 -985 -758 -1255 -1754 -22 -80 -49 -188 -60
-240 -11 -52 -23 -103 -26 -112 -5 -16 4 -18 90 -18 l95 0 17 58 c177 635 396
1076 681 1373 141 147 272 236 417 284 580 191 1181 -455 1501 -1612 l28 -103
94 0 c82 0 93 2 93 18 0 27 -85 364 -125 497 -266 885 -684 1458 -1165 1595
-101 29 -287 36 -385 14z"/>
<path d="M1616 5255 c-57 -20 -87 -45 -113 -95 l-23 -43 0 -2409 c0 -2001 2
-2414 14 -2441 18 -43 71 -94 115 -109 29 -10 488 -13 2272 -13 l2236 0 48 30
c32 20 56 45 72 74 l23 44 0 2416 0 2416 -23 40 c-25 44 -72 80 -126 95 -24 6
-795 10 -2246 10 -1871 -1 -2216 -3 -2249 -15z m3709 -1029 l360 -254 0 -133
0 -134 -208 0 -209 0 -1 87 -2 87 -240 165 -240 166 -880 -1 -880 0 -255 -177
-255 -177 -3 -1120 -2 -1120 260 -183 259 -182 864 0 864 0 254 178 254 178 0
449 0 450 -572 3 -573 2 0 130 0 130 785 0 785 0 -2 -631 -3 -632 -375 -263
-375 -263 -1045 0 -1045 0 -375 263 -375 263 0 1223 0 1223 375 263 375 263
1060 0 1060 0 360 -253z"/>
</g>
</svg>
