<?xml version="1.0" encoding="utf-8"?>
<!-- Generator: Adobe Illustrator 18.0.0, SVG Export Plug-In . SVG Version: 6.00 Build 0)  -->
<!DOCTYPE svg PUBLIC "-//W3C//DTD SVG 1.1//EN" "http://www.w3.org/Graphics/SVG/1.1/DTD/svg11.dtd">
<svg version="1.1" id="Layer_1" xmlns="http://www.w3.org/2000/svg" xmlns:xlink="http://www.w3.org/1999/xlink" x="0px" y="0px"
	 viewBox="0 0 556.5 125.9" enable-background="new 0 0 556.5 125.9" xml:space="preserve">
<path d="M87.5,93.4V80.5l7.6-7.4h26.5V62.3l-5.4-5.4H98.9l-5.5,5.4v4.4h-5.5v-6.1l8.5-8.5h22.1l8.5,8.5V101h-5.4v-9.5l-9.8,9.5H95.1
	L87.5,93.4z M110.6,96.1l11-10.8v-7.2H97.3L93,82.2v9.6l4.3,4.2H110.6z"/>
<path d="M253.6,92.4V60.6l8.5-8.5h23.9l8.6,8.5V78h-35.5v12.6l5.5,5.4h19l5.5-5.3v-4.3h5.5v6L286,101h-23.8L253.6,92.4z M289.2,73.2
	V62.4l-5.4-5.4h-19.2l-5.4,5.4v10.8H289.2z"/>
<path d="M313.7,92.4V56.9h-8.8v-4.8h9V36.2h5.3v15.9h15.3V57h-15.3v33.7l5.4,5.4h9.9v4.9h-12.3L313.7,92.4z"/>
<path d="M346.9,32.2h6.6l22.7,55.9h0.2l22.7-55.9h6.7V101h-5.4V42.8h-0.2l-21.4,51.8h-4.8l-21.4-51.8h-0.2V101h-5.4V32.2z"/>
<path d="M420.5,93.4V80.5l7.6-7.4h26.5V62.3l-5.4-5.4h-17.3l-5.5,5.4v4.4h-5.5v-6.1l8.5-8.5h22.1l8.5,8.5V101h-5.4v-9.5l-9.8,9.5
	H428L420.5,93.4z M443.6,96.1l11-10.8v-7.2h-24.3l-4.3,4.1v9.6l4.3,4.2H443.6z"/>
<line fill="none" x1="243.8" y1="90.6" x2="237.8" y2="90.6"/>
<path d="M138.9,92.5V60.6l8.5-8.5h18.5l8.9,7.8v-29h5.5V101h-5.4v-9.7l-9.7,9.7h-17.8L138.9,92.5z M163.8,96l11-11V65.9L164.5,57
	h-14.7l-5.4,5.3v28.4l5.4,5.3H163.8z"/>
<path d="M231.8,50.4v60.5l-8.3,8.3h-23l-6.9-6.8v-5.5h5.4v3.7l3.8,3.8h18.3l5.3-5.2V89.6l-9.6,8.6h-17.2l-8.4-8.4V58.7l8.4-8.4h17.6
	l9.3,9.3v-9.3H231.8z M226.4,66.1l-10.9-11h-13.6l-5.3,5.2v27.8l5.3,5.2h13.6l10.9-9.9V66.1z"/>
<path fill="#0068FF" d="M489.9,68l-42.1-43.7l-2.5,0l42.2,43.8l-17.6,33.6l8.9,8.9l0.8-1.6l-7.3-7.3L489.9,68z M533.4,108.6h11.3
	l-42.4-42.9L519,33.8l-5.9-5.3l-2.3,4.1v0L498.3,57l-1.7-1.9l12.9-24.5l2-3.8l-1.5-1.5l-1.9,3.7l-12.9,24.5l-1,1.9l-0.9,1.7
	L462,24.4l-11.4-0.1L492.7,68l-17.6,33.6l5.4,5.4l11.3-21.6l4.4-8.5l1.5,1.6l1.8,1.9l4.7,4l23.9,24.1h2.4l-23.8-24.1l-6.3-6.1l1-2.6
	L533.4,108.6z"/>
<path fill="#0068FF" d="M507.5,65.7l16.8-31.9l-9-8.7l-1,2l-1.2,1.7l-2.3,3.9v0L498.3,57l-1.7-1.9l-1.4-1.6l-28-29.1l-2.8,0
	l-13.9-0.2l0.1,0.1L492.7,68l-17.6,33.6l8.8,8.8l13.1-25l2.6-4.9l0.9-1.6l1-2.8l31.9,32.5h16.5L507.5,65.7z"/>
<path fill="#0068FF" d="M40.7,5.7c-9.7,0-18,11.9-21.8,30.9h2.8c3.7-14,10.8-25.2,19-25.2c8.2,0,15.3,11.2,19,25.2h2.8
	C58.7,17.6,50.4,5.7,40.7,5.7z"/>
<path fill="#0068FF" d="M63.8,114H15.1c-5.6,0-10.2-4.6-10.2-10.2V50.3c0-5.6,4.6-10.2,10.2-10.2h48.7c5.6,0,10.2,4.6,10.2,10.2
	v53.6C74,109.5,69.4,114,63.8,114z"/>
<g>
	<path fill="#FFFFFF" d="M13.9,94.3V59.2l10.8-7.5h30.5l10.4,7.3v3.8h-5.9v-2.5l-7-4.8H27.3l-7.5,5.2v32.4l7.5,5.2h24.9l7.4-5.2
		V79.9H43.1v-3.7h22.4v18.2l-10.8,7.5H24.6L13.9,94.3z"/>
</g>
</svg>
